<svg xmlns="http://www.w3.org/2000/svg" width="1200" height="1200" fill="none"><g clip-path="url(#a)"><path fill="#AB9FF2" d="M0-.001h1200v1200H0z"/><path fill="#FFFDF8" fill-rule="evenodd" d="M522.218 764.813c-47.117 72.198-126.071 163.564-231.129 163.564-49.664 0-97.418-20.445-97.418-109.256 0-226.179 308.808-576.309 595.332-576.309 163 0 227.947 113.089 227.947 241.513 0 164.842-106.971 353.325-213.303 353.325-33.746 0-50.301-18.529-50.301-47.919 0-7.667 1.274-15.973 3.821-24.918-36.293 61.975-106.332 119.479-171.914 119.479-47.754 0-71.949-30.03-71.949-72.199 0-15.334 3.183-31.307 8.914-47.28Zm246.817-284.942c0 37.422-22.079 56.132-46.777 56.132-25.073 0-46.777-18.71-46.777-56.132s21.704-56.133 46.777-56.133c24.698 0 46.777 18.711 46.777 56.133Zm140.332.001c0 37.422-22.079 56.133-46.777 56.133-25.073 0-46.777-18.711-46.777-56.133 0-37.422 21.704-56.132 46.777-56.132 24.698 0 46.777 18.71 46.777 56.132Z" clip-rule="evenodd"/></g><defs><clipPath id="a"><rect width="1200" height="1200" y="-.001" fill="#fff" rx="600"/></clipPath></defs></svg>